<svg xmlns="http://www.w3.org/2000/svg" viewBox="0 0 48 48">
    <g>
        <path d="M37.8 1.71875c-4.74375 0-8.48125 3.88125-8.48125 8.48125 0 4.3125 6.9 13.36875 7.61875 14.375.14375.2875.575.43125.8625.43125.2875 0 .71875-.14375.8625-.43125.71875-1.00625 7.61875-10.0625 7.61875-14.375 0-4.6-3.88125-8.48125-8.48125-8.48125zm0 12.21875c-2.0125 0-3.7375-1.725-3.7375-3.7375 0-2.0125 1.58125-3.59375 3.59375-3.59375S41.25 8.1875 41.25 10.2c.14375 2.0125-1.4375 3.7375-3.45 3.7375z"/>
        <path d="M39.38125 32.3375H28.8875c-2.0125 0-3.59375-1.58125-3.59375-3.59375S26.875 25.15 28.8875 25.15h5.60625c-.43125-.575-1.00625-1.29375-1.58125-2.15625h-4.025c-3.1625 0-5.89375 2.5875-5.89375 5.89375 0 3.1625 2.5875 5.89375 5.89375 5.89375h10.49375c2.5875 0 4.74375 2.15625 4.74375 4.74375 0 2.5875-2.15625 4.74375-4.74375 4.74375H15.0875c-.575.8625-1.15 1.58125-1.58125 2.15625h25.875c3.88125 0 6.9-3.1625 6.9-6.9 0-4.025-3.1625-7.1875-6.9-7.1875z"/>
        <path d="M10.2 22.99375c-4.74375 0-8.48125 3.88125-8.48125 8.48125 0 4.3125 6.9 13.36875 7.61875 14.375.14375.2875.575.43125.8625.43125.2875 0 .71875-.14375.8625-.43125.71875-1.00625 7.61875-10.0625 7.61875-14.375 0-4.74375-3.7375-8.48125-8.48125-8.48125zm0 12.075c-2.0125 0-3.59375-1.58125-3.59375-3.59375S8.1875 27.88125 10.2 27.88125s3.59375 1.58125 3.59375 3.59375c.14375 2.0125-1.58125 3.59375-3.59375 3.59375z"/>
    </g>
</svg>
